<mxfile host="Electron" agent="Mozilla/5.0 (X11; Linux x86_64) AppleWebKit/537.36 (KHTML, like Gecko) draw.io/26.1.1 Chrome/132.0.6834.210 Electron/34.3.3 Safari/537.36" version="26.1.1">
  <diagram name="Page-1" id="_lYKge_1GUOMoT2qBGgi">
    <mxGraphModel dx="1122" dy="758" grid="1" gridSize="10" guides="1" tooltips="1" connect="1" arrows="1" fold="1" page="1" pageScale="1" pageWidth="827" pageHeight="1169" math="0" shadow="0">
      <root>
        <mxCell id="0" />
        <mxCell id="1" parent="0" />
        <mxCell id="CxwdCMs2SlEY6pvl46-Y-1" value="" style="endArrow=none;dashed=1;html=1;dashPattern=1 3;strokeWidth=2;rounded=0;" edge="1" parent="1">
          <mxGeometry width="50" height="50" relative="1" as="geometry">
            <mxPoint x="200" y="510" as="sourcePoint" />
            <mxPoint x="440" y="370" as="targetPoint" />
          </mxGeometry>
        </mxCell>
        <mxCell id="CxwdCMs2SlEY6pvl46-Y-2" value="" style="endArrow=none;dashed=1;html=1;dashPattern=1 3;strokeWidth=2;rounded=0;" edge="1" parent="1">
          <mxGeometry width="50" height="50" relative="1" as="geometry">
            <mxPoint x="500" y="620" as="sourcePoint" />
            <mxPoint x="440" y="370" as="targetPoint" />
          </mxGeometry>
        </mxCell>
        <mxCell id="CxwdCMs2SlEY6pvl46-Y-3" value="" style="endArrow=none;dashed=1;html=1;dashPattern=1 3;strokeWidth=2;rounded=0;" edge="1" parent="1">
          <mxGeometry width="50" height="50" relative="1" as="geometry">
            <mxPoint x="180" y="350" as="sourcePoint" />
            <mxPoint x="440" y="370" as="targetPoint" />
          </mxGeometry>
        </mxCell>
        <mxCell id="CxwdCMs2SlEY6pvl46-Y-11" value="" style="endArrow=none;dashed=1;html=1;dashPattern=1 3;strokeWidth=2;rounded=0;" edge="1" parent="1">
          <mxGeometry width="50" height="50" relative="1" as="geometry">
            <mxPoint x="440" y="370" as="sourcePoint" />
            <mxPoint x="440" y="140" as="targetPoint" />
          </mxGeometry>
        </mxCell>
        <mxCell id="CxwdCMs2SlEY6pvl46-Y-12" value="" style="endArrow=none;dashed=1;html=1;dashPattern=1 3;strokeWidth=2;rounded=0;" edge="1" parent="1">
          <mxGeometry width="50" height="50" relative="1" as="geometry">
            <mxPoint x="440" y="370" as="sourcePoint" />
            <mxPoint x="660" y="240" as="targetPoint" />
          </mxGeometry>
        </mxCell>
        <mxCell id="CxwdCMs2SlEY6pvl46-Y-14" value="" style="endArrow=none;dashed=1;html=1;dashPattern=1 3;strokeWidth=2;rounded=0;" edge="1" parent="1">
          <mxGeometry width="50" height="50" relative="1" as="geometry">
            <mxPoint x="500" y="480" as="sourcePoint" />
            <mxPoint x="580" y="330" as="targetPoint" />
          </mxGeometry>
        </mxCell>
        <mxCell id="CxwdCMs2SlEY6pvl46-Y-15" value="" style="endArrow=none;dashed=1;html=1;dashPattern=1 3;strokeWidth=2;rounded=0;" edge="1" parent="1">
          <mxGeometry width="50" height="50" relative="1" as="geometry">
            <mxPoint x="550" y="520" as="sourcePoint" />
            <mxPoint x="650" y="330" as="targetPoint" />
          </mxGeometry>
        </mxCell>
        <mxCell id="CxwdCMs2SlEY6pvl46-Y-16" value="" style="ellipse;whiteSpace=wrap;html=1;aspect=fixed;fillColor=#dae8fc;strokeColor=#6c8ebf;gradientColor=none;shadow=0;" vertex="1" parent="1">
          <mxGeometry x="380" y="420" width="30" height="30" as="geometry" />
        </mxCell>
        <mxCell id="CxwdCMs2SlEY6pvl46-Y-17" value="" style="ellipse;whiteSpace=wrap;html=1;aspect=fixed;fillColor=#dae8fc;strokeColor=#6c8ebf;gradientColor=none;shadow=0;" vertex="1" parent="1">
          <mxGeometry x="384" y="470" width="30" height="30" as="geometry" />
        </mxCell>
        <mxCell id="CxwdCMs2SlEY6pvl46-Y-18" value="" style="ellipse;whiteSpace=wrap;html=1;aspect=fixed;fillColor=#dae8fc;strokeColor=#6c8ebf;gradientColor=none;shadow=0;" vertex="1" parent="1">
          <mxGeometry x="420" y="510" width="30" height="30" as="geometry" />
        </mxCell>
        <mxCell id="CxwdCMs2SlEY6pvl46-Y-19" value="" style="ellipse;whiteSpace=wrap;html=1;aspect=fixed;fillColor=#dae8fc;strokeColor=#6c8ebf;gradientColor=none;shadow=0;" vertex="1" parent="1">
          <mxGeometry x="330" y="490" width="30" height="30" as="geometry" />
        </mxCell>
        <mxCell id="CxwdCMs2SlEY6pvl46-Y-21" value="" style="ellipse;whiteSpace=wrap;html=1;aspect=fixed;fillColor=#fff2cc;strokeColor=#d6b656;shadow=0;" vertex="1" parent="1">
          <mxGeometry x="260" y="360" width="30" height="30" as="geometry" />
        </mxCell>
        <mxCell id="CxwdCMs2SlEY6pvl46-Y-24" value="" style="ellipse;whiteSpace=wrap;html=1;aspect=fixed;fillColor=#fff2cc;strokeColor=#d6b656;shadow=0;" vertex="1" parent="1">
          <mxGeometry x="280" y="410" width="30" height="30" as="geometry" />
        </mxCell>
        <mxCell id="CxwdCMs2SlEY6pvl46-Y-25" value="" style="ellipse;whiteSpace=wrap;html=1;aspect=fixed;fillColor=#fff2cc;strokeColor=#d6b656;shadow=0;" vertex="1" parent="1">
          <mxGeometry x="230" y="400" width="30" height="30" as="geometry" />
        </mxCell>
        <mxCell id="CxwdCMs2SlEY6pvl46-Y-26" value="" style="ellipse;whiteSpace=wrap;html=1;aspect=fixed;fillColor=#fff2cc;strokeColor=#d6b656;shadow=0;" vertex="1" parent="1">
          <mxGeometry x="320" y="380" width="30" height="30" as="geometry" />
        </mxCell>
        <mxCell id="CxwdCMs2SlEY6pvl46-Y-28" value="" style="ellipse;whiteSpace=wrap;html=1;aspect=fixed;fillColor=#d5e8d4;strokeColor=#82b366;shadow=0;" vertex="1" parent="1">
          <mxGeometry x="320" y="240" width="30" height="30" as="geometry" />
        </mxCell>
        <mxCell id="CxwdCMs2SlEY6pvl46-Y-30" value="" style="ellipse;whiteSpace=wrap;html=1;aspect=fixed;fillColor=#d5e8d4;strokeColor=#82b366;shadow=0;" vertex="1" parent="1">
          <mxGeometry x="380" y="260" width="30" height="30" as="geometry" />
        </mxCell>
        <mxCell id="CxwdCMs2SlEY6pvl46-Y-31" value="" style="ellipse;whiteSpace=wrap;html=1;aspect=fixed;fillColor=#d5e8d4;strokeColor=#82b366;shadow=0;" vertex="1" parent="1">
          <mxGeometry x="320" y="310" width="30" height="30" as="geometry" />
        </mxCell>
        <mxCell id="CxwdCMs2SlEY6pvl46-Y-32" value="" style="ellipse;whiteSpace=wrap;html=1;aspect=fixed;fillColor=#d5e8d4;strokeColor=#82b366;shadow=0;" vertex="1" parent="1">
          <mxGeometry x="390" y="320" width="30" height="30" as="geometry" />
        </mxCell>
        <mxCell id="CxwdCMs2SlEY6pvl46-Y-33" value="" style="ellipse;whiteSpace=wrap;html=1;aspect=fixed;fillColor=#f8cecc;strokeColor=#b85450;shadow=0;" vertex="1" parent="1">
          <mxGeometry x="530" y="200" width="30" height="30" as="geometry" />
        </mxCell>
        <mxCell id="CxwdCMs2SlEY6pvl46-Y-34" value="" style="ellipse;whiteSpace=wrap;html=1;aspect=fixed;fillColor=#f8cecc;strokeColor=#b85450;shadow=0;" vertex="1" parent="1">
          <mxGeometry x="510" y="240" width="30" height="30" as="geometry" />
        </mxCell>
        <mxCell id="CxwdCMs2SlEY6pvl46-Y-35" value="" style="ellipse;whiteSpace=wrap;html=1;aspect=fixed;fillColor=#f8cecc;strokeColor=#b85450;shadow=0;" vertex="1" parent="1">
          <mxGeometry x="450" y="230" width="30" height="30" as="geometry" />
        </mxCell>
        <mxCell id="CxwdCMs2SlEY6pvl46-Y-36" value="" style="ellipse;whiteSpace=wrap;html=1;aspect=fixed;fillColor=#f8cecc;strokeColor=#b85450;shadow=0;" vertex="1" parent="1">
          <mxGeometry x="470" y="280" width="30" height="30" as="geometry" />
        </mxCell>
        <mxCell id="CxwdCMs2SlEY6pvl46-Y-37" value="" style="ellipse;whiteSpace=wrap;html=1;aspect=fixed;fillColor=#dae8fc;strokeColor=#6c8ebf;gradientColor=none;shadow=0;" vertex="1" parent="1">
          <mxGeometry x="490" y="360" width="30" height="30" as="geometry" />
        </mxCell>
        <mxCell id="CxwdCMs2SlEY6pvl46-Y-38" value="" style="ellipse;whiteSpace=wrap;html=1;aspect=fixed;fillColor=#dae8fc;strokeColor=#6c8ebf;gradientColor=none;shadow=0;" vertex="1" parent="1">
          <mxGeometry x="460" y="390" width="30" height="30" as="geometry" />
        </mxCell>
        <mxCell id="CxwdCMs2SlEY6pvl46-Y-39" value="" style="ellipse;whiteSpace=wrap;html=1;aspect=fixed;fillColor=#f8cecc;strokeColor=#b85450;shadow=0;" vertex="1" parent="1">
          <mxGeometry x="560" y="380" width="30" height="30" as="geometry" />
        </mxCell>
        <mxCell id="CxwdCMs2SlEY6pvl46-Y-40" value="" style="ellipse;whiteSpace=wrap;html=1;aspect=fixed;fillColor=#f8cecc;strokeColor=#b85450;shadow=0;" vertex="1" parent="1">
          <mxGeometry x="590" y="330" width="30" height="30" as="geometry" />
        </mxCell>
        <mxCell id="CxwdCMs2SlEY6pvl46-Y-41" value="" style="ellipse;whiteSpace=wrap;html=1;aspect=fixed;fillColor=#d5e8d4;strokeColor=#82b366;shadow=0;" vertex="1" parent="1">
          <mxGeometry x="620" y="420" width="30" height="30" as="geometry" />
        </mxCell>
        <mxCell id="CxwdCMs2SlEY6pvl46-Y-42" value="" style="ellipse;whiteSpace=wrap;html=1;aspect=fixed;fillColor=#d5e8d4;strokeColor=#82b366;shadow=0;" vertex="1" parent="1">
          <mxGeometry x="590" y="480" width="30" height="30" as="geometry" />
        </mxCell>
      </root>
    </mxGraphModel>
  </diagram>
</mxfile>
